<svg xmlns="http://www.w3.org/2000/svg" id="Layer_1" data-name="Layer 1" viewBox="0 0 241.53029 116.5649"><defs><style>      .cls-1 {        fill: #d0d0d0;      }      .cls-2 {        fill: #213a8f;      }      .cls-3 {        fill: #706f6f;      }    </style></defs><polygon class="cls-2" points="138.2207 48.0117 129.127 48.0117 129.127 38.1928 123.7207 38.1928 123.7207 63.9965 129.127 63.9965 129.127 53.3798 138.2207 53.3798 138.2207 63.9965 143.627 63.9965 143.627 38.1928 138.2207 38.1928 138.2207 48.0117"></polygon><polygon class="cls-2" points="145.8418 43.4863 152.4785 43.4863 152.4785 63.9975 157.916 63.9975 157.916 43.4863 164.582 43.4863 164.582 38.1533 145.8418 38.1533 145.8418 43.4863"></polygon><path class="cls-2" d="m166.6816,40.9306v20.2886c0,1.7119,1.0342,2.7773,2.7012,2.7773h14.4678v-5.3662h-11.7686v-4.9526h11.2422v-5.3652h-11.2422v-4.8262h11.8467v-5.333h-14.583c-2.1045,0-2.6641,1.7461-2.6641,2.7773"></path><path class="cls-2" d="m226.20019,42.5039c-1.667-2.9117-4.9648-4.7998-8.4043-4.7998-3.4414,0-6.7842,1.915-8.5205,4.8789-1.0098,1.8403-1.335,3.458-1.335,6.667v14.7475h5.4385v-8.1084h8.8008v8.1084h5.4766v-14.8193c0-3.0703-.3946-4.8789-1.4561-6.6743m-12.8213,6.8213c0-2.2359.291-3.2212.7568-4.0831.73831-1.2978,2.211-2.1699,3.6602-2.1699,1.5234,0,2.9893.896,3.7393,2.2827.4511.8042.6445,1.5142.6445,3.8233v1.3838h-8.8008v-1.2368Z"></path><path class="cls-2" d="m196.5469,37.6782c-5.4942,0-9.961,4.4687-9.961,9.9619v16.3818h5.459v-7.3799c1.4033.6861,2.878,1.0352,4.3906,1.0352,5.6475,0,10.0713-4.3613,10.0713-9.9224,0-5.6508-4.374-10.0766-9.9599-10.0766m0,4.9419c2.7597,0,4.917,2.2719,4.917,5.167,0,2.7539-2.2608,4.999-5.0391,4.999-2.5371,0-4.7598-2.356-4.7598-5.044,0-2.8203,2.1895-5.122,4.8819-5.122"></path><path class="cls-2" d="m56.8516,82.1479c-1.0357,2.3184-3.355,3.9316-6.0547,3.9316-1.6763,0-3.2022-.6259-4.3701-1.6503-1.168,1.0244-2.6929,1.6503-4.3692,1.6503-2.6997,0-5.021-1.6132-6.0576-3.9316-.3711-.8242-.582-1.7412-.582-2.708,0-.0752.0039-15.4668.0039-15.4668h5.4077s-.0049,15.5049-.0049,15.5117c0,.8008.648,1.4512,1.4492,1.4512.8008,0,1.4497-.6504,1.4497-1.4512,0-.0019-.0058-15.5117-.0058-15.5117h5.4121v15.5117c0,.8008.6499,1.4512,1.4507,1.4512.8003,0,1.4502-.6504,1.4502-1.4512,0-.0068-.0059-15.5117-.0059-15.5117h5.4077s.0044,15.3916.0044,15.4668c0,.9668-.2134,1.8838-.5854,2.708"></path><path class="cls-2" d="m75.6084,42.5449c2.314,1.0371,3.9282,3.3559,3.9282,6.0547,0,1.6762-.624,3.2031-1.6489,4.3701,1.0249,1.1699,1.6489,2.6943,1.6489,4.3701,0,2.6997-1.6142,5.02-3.9282,6.0581-.8267.3691-1.7446.5811-2.7119.5811-.0747,0-15.4639-.0049-15.4639-.0049v-5.4072s15.5039.0039,15.5122.0039c.7989,0,1.4478-.648,1.4478-1.4512,0-.7979-.6489-1.4478-1.4478-1.4478-.0034,0-15.5122.0069-15.5122.0069v-5.4107h15.5122c.7989,0,1.4478-.6504,1.4478-1.4511,0-.8013-.6489-1.4512-1.4478-1.4512-.0083,0-15.5122.0063-15.5122.0063v-5.4092s15.3892-.0009,15.4639-.0009c.9673,0,1.8852.2099,2.7119.583"></path><path class="cls-2" d="m36.0024,23.788c1.0376-2.3139,3.355-3.9292,6.0557-3.9292,1.6753,0,3.2022.625,4.3691,1.6524,1.168-1.0274,2.6929-1.6524,4.3702-1.6524,2.6987,0,5.019,1.6153,6.0576,3.9292.3711.8282.582,1.7461.582,2.711,0,.0752-.0039,15.4658-.0039,15.4658h-5.4087s.0059-15.5039.0059-15.5107c0-.8013-.649-1.4502-1.4502-1.4502-.8008,0-1.4488.6489-1.4488,1.4502l.0049,15.5107h-5.4111v-15.5107c0-.8013-.6509-1.4502-1.4517-1.4502-.8003,0-1.4492.6489-1.4492,1.4502,0,.0068.0049,15.5107.0049,15.5107h-5.4067s-.0044-15.3906-.0044-15.4658c0-.9649.2124-1.8828.5844-2.711"></path><path class="cls-2" d="m17.2451,63.395c-2.3139-1.0391-3.9277-3.3555-3.9277-6.0547,0-1.6768.626-3.2031,1.6499-4.3701-1.0239-1.1699-1.6499-2.6939-1.6499-4.3706,0-2.6993,1.6138-5.0191,3.9277-6.0562.8272-.3721,1.7451-.582,2.7124-.582.0747,0,15.4649.0039,15.4649.0039v5.4072s-15.5039-.0049-15.5113-.0049c-.8017,0-1.4487.649-1.4487,1.4488,0,.8012.647,1.4482,1.4487,1.4482.001,0,15.5113-.0034,15.5113-.0034v5.4111h-15.5113c-.8017,0-1.4487.6489-1.4487,1.4512,0,.8008.647,1.4482,1.4487,1.4482.0074,0,15.5113-.0048,15.5113-.0048v5.4062s-15.3902.0049-15.4649.0049c-.9673,0-1.8852-.211-2.7124-.583"></path><path class="cls-2" d="m120.1094,47.0859c0-2.0313-.6758-3.9043-1.7979-5.4233-1.6479-2.23-4.2798-3.6866-7.2578-3.7178-.0303,0-.06-.002-.0903-.002-.1797,0-.7769.0332-.898.045-.0366.0029-.0708.0092-.1089.0131-1.873.2041-3.5747.979-4.9331,2.1421-.0488.043-.0976.0879-.146.1328-.0478-.0449-.0966-.0898-.1469-.1328-1.357-1.1631-3.0581-1.938-4.9331-2.1421-.0376-.0039-.0728-.0102-.1109-.0131-.1201-.0118-.7158-.045-.895-.045-.0298,0-.0601.002-.0898.002-2.98.0312-5.6099,1.4878-7.2593,3.7178-1.1226,1.519-1.7979,3.392-1.7979,5.4233v16.9106h5.5152v-16.9287c.0049-1.9189,1.5649-3.4731,3.4839-3.4731,1.9218,0,3.477,1.5591,3.477,3.479v16.9228h5.5142v-16.9228c0-1.9199,1.5547-3.479,3.4756-3.479,1.9204,0,3.479,1.5542,3.4853,3.4731v16.9287h5.5137v-16.9106Z"></path><path class="cls-3" d="m140.043,72.0268l-.0323.0068-.1826,4.0596.9014.1904-.0166.4385h-2.4649l-.0146-.4238.877-.2217.3642-4.6465-.8535-.249.0547-.4023c.2148,0,.3945,0,.5537.0029.1562.0049.3076.0049.457.0049h.459c.1563,0,.3399-.0049.5518-.0078.0254.0947.0468.1806.0732.2588.0215.0791.0449.1582.085.2382l.9091,2.1289.6631,1.6016h.0625l.7188-1.748,1.0596-2.4795c.2451.0078.5429.0156.9003.0117.3536-.0039.7002-.0088,1.0401-.0117l.0234.4297-.8584.2216.3369,4.6534.8321.2001-.0176.4385h-2.6358l-.0166-.3945.7745-.2441-.1983-4.1172h-.0498l-1.8848,4.4961h-.5283l-1.9433-4.4356Z"></path><path class="cls-3" d="m149.0439,72.4204c.1973,0,.3868.0175.5694.0488.1806.0312.3388.0771.4746.1406.1416.0625.2529.1436.3301.2285.08.0928.1191.1934.1191.3106,0,.1289-.0478.2441-.1338.3418-.0879.1006-.1982.1738-.3242.2265l-1.042-.7783c-.2295.0078-.4277.0791-.5928.2129-.166.1328-.2529.3164-.2529.5449,0,.1475.04.253.1016.3282.0722.0752.167.1289.2783.166.1182.0322.2519.0547.4023.0576.1416.0049.2998.0098.4727.0098l.0635.0703-.1426.498h-.1484c-.3711,0-.6407.0537-.8057.169-.167.1113-.2529.2617-.2529.4433,0,.2002.0859.3672.2529.501.1738.1279.4736.1982.9014.1982.332,0,.7412-.0752,1.2226-.2255l.1826.4502c-.1201.0791-.2461.1455-.3945.2041-.1514.0566-.3096.1044-.4736.1494-.1592.0449-.3252.0761-.4922.0947-.1651.0205-.3223.0312-.4649.0312-.3164,0-.5761-.0312-.7978-.0947-.2207-.0635-.4004-.1474-.5449-.2637-.1416-.1093-.2452-.2402-.3077-.3857-.0634-.1475-.0947-.3047-.0947-.4727,0-.0888.0156-.1865.0469-.2929.0322-.1074.0791-.21.1426-.3096.0625-.0947.1425-.1846.2363-.2656.0947-.0811.2139-.1358.3398-.1709v-.0098c-.2451-.0625-.4267-.1777-.5351-.3437-.1201-.169-.1758-.335-.1758-.501,0-.2041.0498-.3897.1348-.5566.0957-.1622.2216-.2999.3877-.4102.166-.1152.3545-.1982.5839-.2568.2286-.0547.4737-.0879.7334-.0879"></path><path class="cls-3" d="m155.6465,72.4204c.1992,0,.3896.0175.5625.0488.1806.0312.3476.0771.4805.1406.1347.0625.2451.1436.3242.2285.0869.0928.1259.1934.1259.3106,0,.1289-.0468.2441-.1337.3418-.086.1006-.1963.1738-.3233.2265l-1.043-.7783c-.2285.0078-.4257.0791-.5927.2129-.1651.1328-.253.3164-.253.5449,0,.1475.0323.253.1036.3282.0703.0752.1582.1289.2754.166.1201.0322.246.0547.3945.0576.1514.0049.3086.0098.4756.0098l.0713.0703-.1514.498h-.1426c-.3691,0-.6474.0537-.8125.169-.167.1113-.2461.2617-.2461.4433,0,.2002.0791.3672.2529.501.167.1279.4678.1982.9014.1982.332,0,.7422-.0752,1.2236-.2255l.1817.4502c-.1172.0791-.2529.1455-.4014.2041-.1426.0566-.2998.1044-.4668.1494-.164.0449-.331.0761-.4961.0947-.167.0205-.3174.0312-.4677.0312-.3077,0-.5752-.0312-.7969-.0947s-.3955-.1474-.5371-.2637c-.1426-.1093-.2451-.2402-.3096-.3857-.0635-.1475-.0947-.3047-.0947-.4727,0-.0888.0156-.1865.0488-.2929.0313-.1074.0772-.21.1406-.3096.0635-.0947.1436-.1846.2383-.2656.0938-.0811.2041-.1358.3399-.1709v-.0098c-.2461-.0625-.4268-.1777-.5469-.3437-.1094-.169-.1641-.335-.1641-.501,0-.2041.0381-.3897.1328-.5566.0957-.1622.2227-.2999.3897-.4102.1562-.1152.3545-.1982.584-.2568.2207-.0547.4736-.0879.7324-.0879"></path><path class="cls-3" d="m160.0293,76.2397c.2148,0,.3896-.0449.5371-.1299.1504-.0888.2764-.2051.3731-.3584.0927-.1513.164-.3291.2109-.5263.0478-.2022.0713-.4239.0713-.6573,0-.2715-.0235-.4961-.0635-.6816-.0449-.1817-.1025-.3359-.1816-.4619-.0791-.127-.1631-.2324-.2745-.3164-.1044-.0821-.205-.1582-.3242-.2276.0469-.1318.126-.2578.252-.373.1201-.1133.2529-.1699.4023-.1699.1602,0,.3086.0478.4424.1513.1338.0977.2529.2373.3555.4073.1025.1738.1836.375.2373.6035.0547.2285.0869.4746.0869.7334,0,.3437-.0479.6718-.1348.9853-.0869.3145-.2197.5918-.4023.8321-.1719.2412-.4024.4345-.6719.5732-.2685.1387-.5849.2119-.9482.2119-.253,0-.4873-.0312-.6992-.0879-.2149-.0566-.4043-.1582-.5625-.3017-.1661-.1436-.292-.3321-.379-.5694-.0869-.2344-.1337-.5303-.1337-.8847v-1.8526l-.5616-.1572v-.3789l1.3907-.1826.1025.08v2.5069c0,.4316.0791.7422.2295.9414.1494.1904.3721.291.6455.291"></path><path class="cls-3" d="m166.8457,73.646c0,.414-.0244.8134-.0869,1.2001-.0635.3829-.166.7256-.3233,1.0235-.1591.2978-.3642.5361-.6171.7129-.2608.1787-.584.2705-.9795.2705-.4268,0-.7657-.0918-1.0352-.2735-.2598-.1816-.457-.4189-.5986-.7148s-.2451-.6357-.293-1.0146c-.0478-.3829-.0713-.7745-.0713-1.1778,0-.4306.0322-.8369.0957-1.2158.0625-.3789.1739-.7109.3233-.999.1582-.2881.3623-.5147.624-.6787.2529-.1709.5762-.253.9717-.253.4189,0,.7578.1006,1.0097.3037.2608.2022.459.4541.6084.7618.1426.3086.2452.6445.2989,1.0078.0488.3672.0732.7148.0732,1.0469m-.9248-.3711c-.0156-.252-.0391-.5049-.0713-.7666-.0312-.2569-.0869-.4903-.1572-.7022-.0791-.2109-.1904-.3799-.3242-.5098-.1407-.1357-.3164-.2011-.5293-.2011-.2217,0-.4024.0625-.5371.1884-.1338.127-.2364.2959-.3164.502-.0694.2061-.125.4414-.1485.7022-.0244.2607-.04.5253-.0478.7968l2.1318-.0097Zm-2.124.5595c.0068.3926.0234.7393.0566,1.042.0303.3047.086.5664.1729.7705.08.2129.1806.3721.3154.4815.1348.1074.3086.1631.5137.1631.2197,0,.4013-.0625.5449-.1856.1338-.123.2451-.2959.3232-.5185.0791-.2207.126-.4815.1582-.7764.0313-.2998.0469-.6279.0469-.9834l-2.1318.0068Z"></path><path class="cls-3" d="m169.7842,76.2397c.2109,0,.3847-.0449.5381-.1299.1494-.0888.2754-.2051.3681-.3584.0948-.1513.169-.3291.2159-.5263.0468-.2022.0683-.4239.0683-.6573,0-.2715-.0215-.4961-.0635-.6816-.0459-.1817-.1006-.3359-.1797-.4619-.0771-.127-.165-.2324-.2763-.3164-.1026-.0821-.2051-.1582-.3233-.2276.0469-.1318.126-.2578.253-.373.1181-.1133.2519-.1699.4004-.1699.1591,0,.3105.0478.4423.1513.1377.0977.253.2373.3575.4073.1005.1738.1796.375.2382.6035.0518.2285.0831.4746.0831.7334,0,.3437-.0459.6718-.1309.9853-.0899.3154-.2217.5918-.4063.8321-.1728.2412-.4003.4345-.6689.5732s-.585.2119-.9482.2119c-.253,0-.4893-.0312-.7051-.0879-.211-.0566-.4004-.1582-.5576-.3017-.1661-.1436-.292-.3321-.3789-.5694-.0899-.2344-.1377-.5303-.1377-.8847v-1.8526l-.5586-.1572v-.3789l1.3906-.1826.1006.08v2.5069c0,.4316.0791.7422.2304.9414.1485.1904.3721.291.6485.291m.4346-5.998l.6611.5371-1.3721,1.3584-.3877-.2998,1.0987-1.5957Z"></path><path class="cls-3" d="m174.9404,75.6196h.0391c.0156-.0274.04-.1065.0869-.2373.0479-.1289.1035-.2832.166-.46.0635-.1797.126-.3681.1973-.5732.0791-.2051.1426-.3955.206-.5742.0625-.1768.1182-.3311.1651-.4571.0469-.1269.0791-.207.0957-.2412l-.5381-.1709v-.3896c.0566,0,.1582,0,.3096-.0078.1494-.0039.3144-.0127.4883-.0166.166-.0079.332-.0127.4824-.0186.1513-.0039.2529-.0088.3076-.0088l.0391.3789c-.1807.1465-.3389.3252-.4649.543-.1269.2119-.2451.458-.3642.7324l-1.129,2.6231-.5449.1103c-.0322-.0596-.0869-.1855-.166-.3789-.0869-.2002-.1816-.4228-.293-.6787-.1093-.2617-.2207-.5371-.3476-.834-.126-.2969-.2363-.5723-.3477-.833-.1103-.2578-.2041-.4824-.289-.6758-.0782-.1924-.1368-.3183-.169-.3818l-.4482-.1543v-.3877l1.4599-.0635c.0078.1377.0323.2959.0801.4697.0391.1768.0938.3438.1563.5059l.8222,2.1797Z"></path><path class="cls-3" d="m179.0166,73.0854l.5996-.5693c.1406-.0332.293-.0586.4483-.0762.1591-.0195.3085-.0264.4345-.0264.3379,0,.624.0987.8535.2959.2286.2022.3399.4932.3399.8848v2.4707l.6787.1592v.3496c-.125.0762-.2764.1357-.4648.1826-.1846.0488-.3555.0684-.5147.0684-.0791,0-.1484-.0078-.2285-.0274-.0733-.0215-.1367-.0556-.2002-.1133-.0518-.0498-.0996-.1123-.1387-.1943-.0312-.0791-.0566-.1826-.0566-.3008v-1.1162c-.0078-.2314-.0078-.456-.0078-.666v-.4336c0-.2754-.0469-.4775-.1407-.6084-.1045-.1269-.2861-.1934-.5459-.1934-.164,0-.3388.0313-.5205.0909-.1816.0605-.3711.1464-.5693.2568v1.1953c0,.4219.0088.9092.0156,1.4463l.6172.1816-.0088.3789h-2.164l-.0157-.3583.6563-.2344v-2.9893l-.5928-.1582v-.3584l1.2725-.2021c.0146.0078.0459.0244.0781.0429l.1416.6133.0332.0088Z"></path><path class="cls-3" d="m187.7646,76.6528c.0557.3633.1036.7129.1436,1.0478.0293.333.0459.668.0225.9942l-.1202.1308c-.1953-.0253-.3857-.0625-.5595-.1191-.1729-.0537-.3155-.127-.4317-.2178.0137-.2529.0528-.5429.1162-.8701.0625-.3281.1172-.6357.1817-.9209-.1914-.6709-.3955-1.2881-.6006-1.8437-.2129-.5577-.4111-1.0508-.6006-1.4737l-.7402-.0517-.0811-.3633c.1739-.1299.3633-.2393.5762-.332.2158-.086.3896-.1329.5244-.1329.2188,0,.3848.0743.5108.2286.1269.1533.2197.3671.3085.6513.0782.2803.1573.5938.2471.9317.0762.3437.1631.7236.2422,1.1328.0479-.1963.1172-.4278.1982-.6944.086-.2841.1807-.5556.2764-.8251.0957-.2647.1963-.5049.2998-.7178.1016-.2139.2129-.3838.3242-.5137.1104-.126.2286-.1934.3467-.1934.1192,0,.2207.0508.3086.1465.0869.0977.1328.2588.1328.4815-.1572.1347-.3066.3086-.4648.5205-.1494.2168-.2998.4736-.4424.7734-.1416.2979-.2764.6367-.4023,1.0088-.1192.375-.2295.7793-.3165,1.2217"></path><path class="cls-3" d="m191.4922,76.1811l.6807.1455v.3643c-.128.0791-.2764.1416-.4659.1904-.1836.043-.3574.0645-.5146.0645-.0791,0-.1504-.0108-.2207-.0352-.0703-.0225-.1328-.0586-.1973-.1123-.0635-.0518-.1103-.1162-.1514-.1992-.0302-.083-.0537-.1865-.0537-.3076l-.0097-3.0498-.5899-.1524v-.3642l1.4366-.2237.0703.041.0156,3.6387Z"></path><path class="cls-3" d="m196.8535,72.603c-.0234.2099-.0312.3789-.039.5127-.0069.1347-.0069.2803-.0069.4346v2.6298l.6865.1475v.3633c-.125.0791-.2753.1406-.4599.1894-.1885.043-.3584.0664-.5186.0664-.0644,0-.1269-.0029-.1914-.0117-.0703-.0107-.1338-.0312-.1885-.0732-.0556-.0352-.1113-.0996-.1484-.1836-.042-.084-.0713-.2061-.081-.3594l-.0245-.0068-.581.541c-.2539.0703-.4981.0996-.7295.0996-.3223,0-.583-.0537-.7949-.1631-.2217-.1182-.3985-.2656-.5303-.46-.1348-.1923-.2275-.414-.291-.6669-.0625-.253-.0957-.5196-.0957-.8086,0-.2657.0332-.5323.0957-.8106.0635-.2754.1728-.5244.3222-.749.1582-.2246.3536-.4082.6163-.5498.2529-.1387.5693-.209.9492-.209.1963,0,.4023.0244.6045.0791.2158.0508.4267.1416.6406.2715l.3555-.3789.4101.0957Zm-3.0234,2.1162c0,.2021.0176.3926.0478.5723.0313.1777.0791.3408.1582.4765.0713.1367.1739.2451.3086.3262.127.0791.2901.1211.4864.1211.1835,0,.3642-.0352.5615-.1094.1894-.0723.3554-.1484.4814-.2275l.0078-2.5098c-.1338-.0547-.2802-.0976-.4492-.1269-.1748-.0264-.3301-.043-.4746-.043-.3603,0-.6396.1299-.835.3926-.1962.2597-.2929.6357-.2929,1.1279"></path><path class="cls-3" d="m200.47169,72.6225l3.167-.0361.0791.0869c-.0323.1387-.0625.2568-.09479.3594-.03221.1064-.06341.1855-.09371.2461h-1.1699v2.3466c0,.211.0478.3711.1347.4756.0938.1094.253.1651.4727.1651.1113,0,.2305-.0108.3564-.0293.13381-.0215.2842-.0518.4659-.0987.0234.0772.0468.1563.0713.2364.01561.08.039.1582.0625.2363-.2266.1152-.4581.1992-.7032.251-.2373.0566-.4658.0849-.67969.0849-.34471,0-.624-.0781-.82121-.2382-.1973-.1563-.292-.4141-.292-.7696v-2.6797c-.2217-.0048-.418-.0127-.6006-.0166-.1807-.0078-.3321-.0166-.4424-.0273v-.5342l.0879-.0586Z"></path><path class="cls-3" d="m205.98339,73.1987l.60161-.5674c.14939-.0361.29879-.0605.458-.0791.15719-.0176.29979-.0244.43449-.0244.3389,0,.6163.0996.8448.2959.2285.1982.3418.4941.3418.8848v2.4726l.6748.1533v.3565c-.126.0722-.2744.1328-.4561.1767-.1894.0479-.3652.0694-.5215.0694-.07029,0-.1484-.0117-.2236-.0323-.0762-.0175-.13869-.0527-.1953-.1064-.0625-.0508-.10939-.1162-.1416-.1953-.0401-.084-.0557-.1817-.0557-.3037v-.4395c0-.2129-.0078-.4326-.0078-.6699,0-.2363-.0078-.458-.0078-.667v-.4355c0-.2764-.0469-.4776-.1406-.6084-.0967-.1309-.2784-.1944-.54589-.1944-.166,0-.33791.0283-.52251.0918-.1807.0596-.3701.1426-.5586.253v1.1962c0,.4278,0,.9082.0069,1.4473l.61621.1836-.00791.3789h-2.163l-.0166-.3623.6543-.2334v-2.9893l-.5909-.1552v-.3633l1.2696-.1973c.0254.0049.0488.0205.0791.0459l.1523.6104.0215.0078Z"></path><path class="cls-3" d="m213.541,74.9409c0,.1142.01079.2207.03219.3213.0157.1015.0635.1953.1416.2871.0704.0859.1748.1689.3165.2441.1328.0762.3232.1397.55271.1973.23729.0644.44919.1191.63179.1621.1895.0478.3477.0986.4824.1592.126.0537.2286.1269.2989.208.0722.083.1103.1933.1103.333,0,.1211-.0381.248-.1172.3789-.08.1289-.1894.2598-.333.3867-.1484.126-.3301.2451-.5449.3525-.2051.1094-.4492.2012-.7168.2774l-.206-.4649c.2529-.1513.4736-.29.6474-.4179.1738-.1309.2608-.2412.2608-.334,0-.0342-.0235-.0654-.087-.0947-.0556-.0264-.1259-.0537-.2041-.0811-.0791-.0244-.166-.0469-.2695-.0664-.0947-.0195-.1826-.042-.2529-.0557-.5694-.1386-1.0029-.3408-1.2959-.5957-.292-.2617-.4424-.6298-.4424-1.1152,0-.2803.0732-.582.2002-.9004.1318-.3154.3164-.6318.5352-.9472.22071-.3116.4736-.6084.7568-.8858.2851-.2783.58591-.5195.9014-.7178l-.02349-.0283c-.10941.0166-.23731.0322-.36331.044-.1269.0127-.26169.0166-.3955.0166-.1738,0-.3457-.0088-.5117-.0245-.166-.0195-.3174-.0429-.4434-.0791-.1269-.0351-.2197-.0781-.3007-.1376-.0713-.0557-.10839-.126-.10839-.2051,0-.0987.03709-.2022.12689-.3155.084-.1103.2197-.1982.3926-.2627.2129.1309.4727.2217.79.2706.3233.0507.6709.0742,1.0577.0742.0322,0,.0957-.0039.205-.0069.1114-.0088.2286-.0127.3555-.0214.127-.003.2451-.0108.3564-.0196.1036-.0068.17291-.0117.1973-.0117l.127.0947-.0713.3955c-.3399.167-.6729.3907-1.003.668-.332.2793-.6328.583-.9013.9111-.2686.3321-.4815.6729-.6406,1.0235-.1651.3515-.24419.6797-.24419.9834"></path><path class="cls-3" d="m219.74119,73.6967l.0947.1065c0,.2334,0,.4687-.0097.6992,0,.2324-.0059.4824-.0059.7373,0,.2266.0156.4072.05371.5498.03319.1387.07809.2529.14159.3359.0576.0831.1367.1387.2158.1661.085.0273.1905.0429.2999.0429.164,0,.3056-.039.42671-.1259.11619-.0831.21489-.1944.29-.335.07329-.1397.13769-.3047.168-.4932.03219-.1904.04879-.3896.04879-.5986,0-.1953-.0117-.3848-.0273-.5557-.0146-.1738-.0518-.3349-.1162-.4863-.0576-.1455-.1484-.2842-.2676-.4072-.126-.1201-.2939-.2373-.5-.3379l.1358-.4356c.3378.0586.6142.1543.8378.2803.2266.1299.4014.2891.5342.4736.1348.1905.22951.3995.2871.6319.0528.2344.085.4785.085.7431,0,.3604-.0557.6758-.1582.9532-.11039.2793-.2588.5156-.4483.709-.1894.1982-.41109.3427-.6796.4472-.2618.0977-.5518.1485-.8604.1485-.2607,0-.4892-.0645-.6797-.2051-.1806-.1377-.3242-.3076-.4189-.5088-.0391.0635-.1104.1338-.1973.2129-.0869.081-.1816.1582-.28319.2275-.11231.0733-.23051.1358-.35641.1836-.127.0488-.2598.0752-.3955.0752-.2286,0-.4483-.0439-.6475-.123-.1973-.0791-.3701-.2051-.5137-.3789-.1484-.1739-.2607-.3907-.3467-.6563-.0878-.2646-.1259-.5762-.1259-.9394,0-.6075.1435-1.1094.42671-1.5088.27539-.3985.70219-.6553,1.27829-.7657l.1426.4356c-.3398.1631-.5615.3945-.6797.6816-.1181.294-.1728.6602-.1728,1.1055,0,.2227.0068.417.0381.5937.0263.1739.0722.3213.1347.4483.0713.126.1661.2266.2764.2988.1211.0664.2607.1016.4355.1016.0948,0,.1817-.0156.2754-.0479.085-.0312.167-.0918.2383-.1728.0615-.083.11721-.1973.1621-.3448.042-.1455.0635-.3388.0635-.5722v-1.1377l.0732-.0859.7266-.1661Z"></path><path class="cls-3" d="m224.66889,73.1997l.6084-.5694c.1416-.0351.292-.0595.4493-.0791.1572-.0156.2998-.0234.4355-.0234.33591,0,.624.0996.8506.2959.2217.1982.3408.4941.3408.8848v2.4726l.6807.1533v.3565c-.127.0722-.2881.1338-.4688.1777-.1826.0469-.3545.0684-.5215.0684-.0693,0-.1416-.0127-.2197-.0313-.07319-.0185-.1435-.0537-.19919-.1074-.05471-.0508-.10161-.1162-.14061-.1953-.0371-.084-.0537-.1817-.0537-.3037v-.4385c0-.2139,0-.4336-.0088-.6699v-1.1035c0-.2764-.04689-.4766-.1504-.6084-.0938-.1309-.2754-.1934-.5361-.1934-.1739,0-.3477.0273-.5215.0908-.1817.0596-.3721.1426-.5684.253v1.1972c0,.4268,0,.9082.0059,1.4473l.6259.1826-.0097.3789h-2.1612l-.0156-.3623.6533-.2334v-2.9893l-.5996-.1552v-.3623l1.2793-.1973c.0157.0039.0381.0195.0791.0449l.1426.6114.0234.0078Zm1.1377-2.8448l.6622.5342-1.3653,1.3623-.3887-.2998,1.0918-1.5967Z"></path><polygon class="cls-1" points="119.5527 87.9995 119.5527 94.393 118.2969 94.393 118.2969 90.4204 118.2827 90.4204 116.7227 93.1801 115.9019 93.1801 114.3418 90.4204 114.3281 90.4204 114.3281 94.393 113.0718 94.393 113.0718 87.9995 114.3457 87.9995 116.311 91.6381 116.3281 91.6381 118.2798 87.9995 119.5527 87.9995"></polygon><polygon class="cls-1" points="121.1348 87.9995 125.2227 87.9995 125.2227 89.1333 122.3828 89.1333 122.3828 90.6665 124.6602 90.6665 124.6602 91.7836 122.3828 91.7836 122.3828 93.2641 125.4111 93.2641 125.4111 94.393 121.1348 94.393 121.1348 87.9995"></polygon><polygon class="cls-1" points="129.0713 89.7749 129.0625 89.7749 127.5371 94.394 126.1836 94.394 128.4434 87.9995 129.6865 87.9995 131.9541 94.394 130.5957 94.394 129.0713 89.7749"></polygon><path class="cls-1" d="m134.3506,94.2221c-.4053-.164-.75-.3896-1.0322-.6767-.2832-.2871-.5039-.6328-.6641-1.0391-.1592-.4062-.2393-.8428-.2393-1.3125,0-.4687.0801-.9043.2393-1.3096.1602-.4043.3809-.75.6641-1.0371.2822-.2871.6269-.5117,1.0351-.6758.4072-.164.8477-.247,1.3233-.247.4648,0,.8974.081,1.2978.2402.3994.1602.7442.3809,1.0313.6641.2861.2812.5117.6269.6757,1.0332.1641.4082.2461.8525.2461,1.332,0,.4805-.082.9258-.2461,1.334-.164.4082-.3896.7549-.6757,1.0371-.2871.2822-.6319.5039-1.0313.6631-.4004.1601-.833.2402-1.2978.2402-.4786,0-.919-.082-1.3262-.2461m2.0967-1.0898c.2382-.1055.4433-.25.6152-.4356.1709-.1845.3057-.4062.4053-.6679.0967-.2608.1455-.5381.1455-.835,0-.3945-.084-.7529-.252-1.0713-.1689-.3203-.4004-.5693-.6943-.7471-.2949-.1796-.624-.2685-.9873-.2685-.375,0-.7109.0937-1.0098.2783-.2988.1865-.5303.4395-.6924.7559-.163.3193-.2441.6689-.2441,1.0527,0,.3877.0811.7393.2441,1.0576.1621.3174.3936.5694.6924.7578.2989.1866.6348.2813,1.0098.2813.2734,0,.5283-.0537.7676-.1582"></path><polygon class="cls-1" points="141.3496 89.1284 141.3496 89.1508 142.8438 91.1899 141.3457 93.2465 141.3457 93.2641 144.1709 93.2641 144.1709 94.394 139.6406 94.394 139.6406 93.5102 141.3184 91.1899 139.6406 88.9174 139.6406 87.9995 144.1709 87.9995 144.1709 89.1284 141.3496 89.1284"></polygon><polygon class="cls-1" points="149.2773 89.1333 147.5146 89.1333 147.5146 87.9995 152.3086 87.9995 152.3086 89.1333 150.5381 89.1333 150.5381 94.393 149.2773 94.393 149.2773 89.1333"></polygon><path class="cls-1" d="m154.7148,94.2221c-.4052-.164-.75-.3896-1.0322-.6767-.2832-.2871-.5039-.6328-.664-1.0391-.1592-.4062-.2393-.8428-.2393-1.3125,0-.4687.0801-.9043.2393-1.3096.1601-.4043.3808-.75.664-1.0371.2822-.2871.6279-.5117,1.0342-.6758.4082-.164.8486-.247,1.3242-.247.4649,0,.8975.081,1.2979.2402.3994.1602.7441.3809,1.0312.6641.2862.2812.5117.6269.6758,1.0332.1641.4082.2461.8525.2461,1.332,0,.4805-.082.9258-.2461,1.334-.1641.4082-.3896.7549-.6758,1.0371-.2871.2822-.6318.5039-1.0312.6631-.4004.1601-.833.2402-1.2979.2402-.4785,0-.9189-.082-1.3262-.2461m2.0967-1.0898c.2383-.1055.4434-.25.6153-.4356.1709-.1845.3056-.4062.4052-.6679.0967-.2608.1465-.5381.1465-.835,0-.3945-.0849-.7529-.2529-1.0713-.169-.3203-.3994-.5693-.6943-.7471-.295-.1796-.6231-.2685-.9864-.2685-.375,0-.7119.0937-1.0117.2783-.2988.1865-.5293.4395-.6914.7559-.1631.3193-.2441.6689-.2441,1.0527,0,.3877.081.7393.2441,1.0576.1621.3174.3926.5694.6914.7578.2998.1866.6367.2813,1.0117.2813.2715,0,.5274-.0537.7666-.1582"></path><polygon class="cls-1" points="164.9688 87.9995 162.8418 91.5854 162.8418 94.393 161.5635 94.393 161.5635 91.5854 159.4492 87.9995 160.9014 87.9995 162.2012 90.3325 162.2188 90.3325 163.5059 87.9995 164.9688 87.9995"></polygon><path class="cls-1" d="m170.1611,94.2221c-.4052-.164-.75-.3896-1.0322-.6767-.2832-.2871-.5039-.6328-.6641-1.0391-.1591-.4062-.2392-.8428-.2392-1.3125,0-.4687.0801-.9043.2392-1.3096.1602-.4043.3809-.75.6641-1.0371.2822-.2871.627-.5117,1.0352-.6758.4072-.164.8476-.247,1.3232-.247.4648,0,.8975.081,1.2979.2402.3994.1602.7441.3809,1.0312.6641.2861.2812.5117.6269.6758,1.0332.1641.4082.2461.8525.2461,1.332,0,.4805-.082.9258-.2461,1.334s-.3897.7549-.6758,1.0371c-.2871.2822-.6318.5039-1.0312.6631-.4004.1601-.8331.2402-1.2979.2402-.4785,0-.9189-.082-1.3262-.2461m2.0967-1.0898c.2383-.1055.4434-.25.6152-.4356.1709-.1845.3057-.4062.4053-.6679.0967-.2608.1455-.5381.1455-.835,0-.3945-.084-.7529-.2519-1.0713-.169-.3203-.3994-.5693-.6944-.7471-.2949-.1796-.624-.2685-.9873-.2685-.375,0-.7109.0937-1.0088.2783-.2998.1865-.5312.4395-.6933.7559-.1631.3193-.2442.6689-.2442,1.0527,0,.3877.0811.7393.2442,1.0576.1621.3174.3935.5694.6933.7578.2979.1866.6338.2813,1.0088.2813.2735,0,.5284-.0537.7676-.1582"></path><polygon class="cls-1" points="182.543 87.9995 182.543 94.393 181.2852 94.393 181.2852 90.4204 181.2725 90.4204 179.7129 93.1801 178.8916 93.1801 177.3301 90.4204 177.3174 90.4204 177.3174 94.393 176.0615 94.393 176.0615 87.9995 177.335 87.9995 179.2988 91.6381 179.3164 91.6381 181.2686 87.9995 182.543 87.9995"></polygon><rect class="cls-1" x="184.168" y="87.9985" width="1.2754" height="6.3945"></rect><polygon class="cls-1" points="189.4238 89.7749 189.415 89.7749 187.8906 94.394 186.5371 94.394 188.7949 87.9995 190.0391 87.9995 192.3066 94.394 190.9492 94.394 189.4238 89.7749"></polygon><path class="cls-1" d="m194.7031,94.2221c-.4052-.164-.75-.3896-1.0322-.6767-.2832-.2871-.5039-.6328-.6641-1.0391-.1591-.4062-.2392-.8428-.2392-1.3125,0-.4687.0801-.9043.2392-1.3096.1602-.4043.3809-.75.6641-1.0371.2822-.2871.6279-.5117,1.0342-.6758.4082-.164.8486-.247,1.3242-.247.4648,0,.8975.081,1.2978.2402.3995.1602.7442.3809,1.0313.6641.2861.2812.5117.6269.6758,1.0332.164.4082.2461.8525.2461,1.332,0,.4805-.0821.9258-.2461,1.334-.1641.4082-.3897.7549-.6758,1.0371-.2871.2822-.6318.5039-1.0313.6631-.4003.1601-.833.2402-1.2978.2402-.4785,0-.9189-.082-1.3262-.2461m2.0967-1.0898c.2383-.1055.4434-.25.6152-.4356.1709-.1845.3057-.4062.4053-.6679.0967-.2608.1465-.5381.1465-.835,0-.3945-.085-.7529-.2529-1.0713-.169-.3203-.3994-.5693-.6944-.7471-.2949-.1796-.622-.2685-.9863-.2685-.375,0-.7119.0937-1.0107.2783-.2998.1865-.5303.4395-.6924.7559-.1631.3193-.2442.6689-.2442,1.0527,0,.3877.0811.7393.2442,1.0576.1621.3174.3926.5694.6924.7578.2988.1866.6357.2813,1.0107.2813.2715,0,.5273-.0537.7666-.1582"></path><polygon class="cls-1" points="204.959 87.9995 202.832 91.5854 202.832 94.393 201.55269 94.393 201.55269 91.5854 199.43949 87.9995 200.88959 87.9995 202.18949 90.3325 202.207 90.3325 203.49509 87.9995 204.959 87.9995"></polygon><polygon class="cls-1" points="208.47749 87.9995 209.749 87.9995 209.749 90.768 212.36229 90.768 212.36229 87.9995 213.63669 87.9995 213.63669 94.393 212.36229 94.393 212.36229 91.8969 209.749 91.8969 209.749 94.393 208.47749 94.393 208.47749 87.9995"></polygon><polygon class="cls-1" points="215.21879 87.9995 216.48929 87.9995 216.48929 90.768 219.10349 90.768 219.10349 87.9995 220.37789 87.9995 220.37789 94.393 219.10349 94.393 219.10349 91.8969 216.48929 91.8969 216.48929 94.393 215.21879 94.393 215.21879 87.9995"></polygon><path class="cls-1" d="m223.67579,94.2329c-.3955-.1475-.7422-.3575-1.0352-.6309-.2929-.2715-.5224-.6133-.6894-1.0254-.167-.4111-.25-.8681-.25-1.3691,0-.4658.0752-.8994.2236-1.3008.1494-.4014.3594-.7481.6309-1.041.2705-.293.6084-.5235,1.0136-.6904.4034-.167.8506-.251,1.3389-.251.4727,0,.9336.0927,1.38481.2802.45109.1846.83589.4571,1.15619.8145l-.8965.7607c-.457-.4423-1.0058-.664-1.6445-.664-.2637,0-.5088.0488-.7383.1445-.2275.0967-.4277.2334-.5986.4092s-.3067.3955-.40529.6621c-.09671.2637-.14651.5566-.14651.876,0,.3926.0772.747.23251,1.0605.15519.3164.38179.5664.67869.752.2978.1865.6416.2793,1.0302.2793.4746,0,.9073-.1221,1.2969-.3653v-.9394h-1.4365v-1.086h2.6592v2.7559c-.2969.2402-.67.4316-1.1182.5752-.4512.1436-.916.2158-1.4014.2158-.45889,0-.8877-.0752-1.2851-.2226"></path><rect class="cls-1" x="89.645" y="82.8784" width="138.28659" height="1.4209"></rect></svg>