<svg xmlns="http://www.w3.org/2000/svg" id="Logotipo" viewBox="0 0 1500 900"><defs><style>      .cls-1 {        fill: #d7112b;      }    </style></defs><g id="Logotipo-2" data-name="Logotipo"><g id="Tipograf&#xED;a"><path class="cls-1" d="m578.31384,565.12578c-5.50098-18.33948-20.84631-23.72711-45.15527-20.76984-3.93933.47925-6.9248,3.84857-6.9248,7.81696v26.12085c12.59509-1.43231,17.74182,1.43256,17.74182,14.60083v90.42865h40.06763v-69.53552c0-23.47162,14.59058-34.63452,31.19653-34.63452,8.01172,0,14.59094,1.43262,22.60229,6.00623l13.45483-33.47864c-11.44946-6.57904-21.75293-8.87079-32.62903-8.87079-15.1637,0-30.62378,7.1521-40.354,22.3158Z"></path><path class="cls-1" d="m671.40942,553.23424v130.0929h40.05762v-137.9447h-32.20581c-4.33643,0-7.85181,3.51538-7.85181,7.85181Z"></path><path class="cls-1" d="m691.72974,482.99901c-14.02771,0-24.04443,8.58441-24.04443,22.02911,0,13.45496,10.01672,22.32574,24.04443,22.32574,13.7312,0,23.46167-8.87079,23.46167-22.32574,0-13.4447-9.73047-22.02911-23.46167-22.02911Z"></path><path class="cls-1" d="m825.74768,542.52269c-15.73645,0-30.05066,4.58356-41.2135,14.31384v-73.84235h-32.21582c-4.33643,0-7.85181,3.51538-7.85181,7.85181v184.46472c18.31494,7.16205,40.06763,10.87646,59.81494,10.87646,46.64685,0,84.42273-21.75293,84.42273-74.97882,0-48.07892-29.19153-68.68567-62.95654-68.68567Zm-15.73645,109.89948c-10.88647,0-17.46545-1.14594-25.47705-3.15131v-34.91125c0-22.61182,10.01697-38.0719,32.90552-38.0719,19.75732,0,32.05615,13.16797,32.05615,36.35321,0,27.18579-16.02295,39.78125-39.48462,39.78125Z"></path><path class="cls-1" d="m1041.60889,586.59654c0-27.18579-22.89844-44.07812-59.52832-44.07812-37.77588,0-75.83813,22.3255-75.83813,71.83698,0,45.79736,32.34241,71.82758,76.98389,71.82758,16.7738,0,32.62927-2.24921,48.98938-9.15863,3.60144-1.521,5.57349-5.45148,4.59924-9.23755l-5.79578-22.52124c-14.31409,5.71979-24.61755,8.01154-42.9325,8.01154-18.02856,0-33.47864-6.00616-39.77124-22.32544,5.43311.28644,10.57983.28644,15.45007.28644,49.5116,0,77.84338-11.73566,77.84338-44.64154Zm-95.58521,18.60138c2.56812-19.17419,15.16357-32.05603,35.19727-32.05603,13.45471,0,22.04907,5.44305,22.04907,15.17365,0,12.01239-12.60522,17.45544-42.36938,17.45544-4.57361,0-9.44385-.28638-14.87695-.57306Z"></path><path class="cls-1" d="m1107.80396,565.12578c-5.50977-18.33948-20.85571-23.72711-45.16479-20.76984-3.93933.47925-6.9248,3.84857-6.9248,7.81696v26.12085c12.59521-1.43231,17.75183,1.43256,17.75183,14.60083v90.42865h40.05762v-69.53552c0-23.47162,14.60059-34.63452,31.19653-34.63452,8.0116,0,14.59094,1.43262,22.60217,6.00623l13.45502-33.47864c-11.44965-6.57904-21.7431-8.87079-32.62909-8.87079-15.16382,0-30.62378,7.1521-40.34448,22.3158Z"></path><path class="cls-1" d="m1332.25781,633.81053v-74.52301c0-3.35199-2.11523-6.37537-5.29669-7.43079-17.47919-5.79865-35.31091-9.33435-54.80457-9.33435-47.51605,0-84.42279,23.74835-84.42279,74.69214,0,43.79199,26.04016,68.97235,63.81604,68.97235,19.74725,0,36.62964-7.72485,46.08344-22.02905,7.42889,22.60217,35.19769,22.88855,52.36676,19.16449v-32.90588c-15.46002,1.43262-17.74219-4.00079-17.74219-16.6059Zm-40.06763-20.5968c0,24.60754-10.87616,38.92169-32.62909,38.92169-19.73907,0-32.32208-13.44348-32.3324-36.0387-.01001-21.93909,18.43542-39.51947,40.37274-39.79651,10.25146-.12946,16.93347.72577,24.58875,2.56567v34.34784Z"></path></g><g id="_&#xC1;rbol" data-name="&#xC1;rbol"><path class="cls-1" d="m333.54529,483.1585c.00378-.23615.05896-24.21753-11.32605-48.7511-10.33594-22.27521-32.50269-49.42517-79.42578-52.28522-13.48401-.59747-28.38672,1.52856-42.24609,7.26538-7.11523,2.59045-13.2356,2.79755-18.19482.54559-5.81714-2.64685-9.49414-8.38226-10.88428-12.52197-2.97815-7.98236-.49316-13.11224,2.11548-16.01044,3.32288-3.67889,7.91199-4.95471,10.53223-4.28442,2.08496.54077,3.40454,1.34058,3.92639,2.38403.89307,1.76709.37317,4.81.04749,5.65167-2.37817,4.87091-.39404,10.85388,4.4292,13.33691,4.91858,2.51355,10.97778.56744,13.50464-4.35297,2.26782-4.42535,4.24243-14.12909.37695-22.72461-2.14404-4.7757-6.87988-11.02905-17.26721-13.70636-10.29211-2.65442-22.52844,1.47388-30.45374,10.27502-8.80884,9.77612-11.03467,22.95312-6.11816,36.1225,2.67773,7.979,9.53455,18.2619,20.72998,23.68213-9.84033,10.19458-17.4928,23.72955-21.09937,41.44879-3.18762,18.39062.68933,45.65863,16.53601,65.11566,12.63806,15.53058,31.31628,24.13373,54.04846,24.87634,38.59033,0,54.43323-22.46948,60.42761-35.83307.29248-.60162.57068-1.20386.83508-1.80634.06616-.15051.1239-.30103.18823-.4516.19336-.45203.38647-.90411.56482-1.35614.0719-.18237.13477-.3645.20422-.54681.16028-.41992.32202-.84003.46973-1.25946.06787-.19275.12671-.38501.19214-.57758.13867-.40863.2793-.81744.40649-1.22522.0603-.19293.11182-.38477.16968-.57745.12183-.40643.24536-.81305.35645-1.21814.05347-.19452.09851-.38776.14941-.58191.10547-.40179.2124-.80396.30762-1.20398.04504-.18903.08252-.3764.12524-.56494.09167-.4043.18481-.80884.2666-1.21094.03491-.17175.06323-.34174.09644-.51312.08081-.41675.16199-.83362.23267-1.24744.02808-.16473.05005-.32745.07666-.49176.06738-.41693.13501-.83405.19263-1.24762.02344-.1687.04102-.33496.06299-.50305.0531-.40741.10657-.81482.15063-1.21851.01782-.16199.03015-.32141.04639-.48279.04102-.40601.08228-.81207.11462-1.21381.01306-.1618.02112-.32074.03284-.48181.02881-.39789.05786-.79578.07886-1.18896.0083-.15656.01208-.31006.01917-.46582.01794-.39465.03601-.78918.04651-1.17853.00391-.14673.00378-.29016.00671-.4361.00781-.39343.01538-.78662.01599-1.17419.00024-.14496-.00317-.28644-.00391-.43048-.00195-.38385-.00415-.76746-.0127-1.1449-.00317-.14337-.00977-.28296-.01392-.42535-.01099-.37402-.02197-.74774-.03882-1.11499-.00647-.14105-.01587-.27814-.02319-.41815-.01892-.36108-.03784-.72186-.06201-1.07581-.01025-.14874-.02319-.29303-.03418-.44043-.02563-.34198-.05103-.6839-.08105-1.01868-.0127-.14008-.02759-.27557-.04089-.41431-.0321-.33423-.06409-.66821-.10022-.99463-.01599-.1449-.03418-.28473-.05078-.42798-.03662-.31281-.073-.62573-.11279-.93073-.02002-.1532-.04175-.30066-.0625-.45184-.03955-.28796-.07874-.5766-.12073-.85706-.02332-.15601-.04822-.30579-.07239-.45941-.04187-.26788-.08337-.53656-.1272-.797-.02673-.15875-.05469-.31085-.08203-.4668-.04297-.24561-.08569-.49249-.13-.73096-.03003-.16138-.06104-.31555-.09155-.47357-.04346-.22491-.08655-.45135-.13098-.66925-.03247-.15973-.06543-.31183-.09839-.46771-.04297-.20447-.08569-.41083-.12939-.60852-.03735-.16974-.07495-.33081-.11243-.49548-.03918-.17194-.07825-.34662-.11755-.51294-.0426-.18042-.08496-.35126-.12744-.52484-.0343-.14008-.0686-.28345-.10278-.41895-.04626-.18384-.0918-.35724-.13745-.53259-.02979-.11414-.05981-.23193-.08936-.34247-.0509-.19061-.10059-.36981-.15015-.54932-.02295-.08282-.04639-.16949-.06897-.24988-.05554-.19714-.10913-.38202-.16248-.56439-.01538-.05267-.03125-.10876-.04651-.16016-.05908-.19983-.11584-.38666-.17126-.5672-.0083-.02667-.01685-.05573-.02515-.08197-.0741-.23956-.14563-.46643-.21167-.66949-5.29553-18.10883-22.61792-32.41693-42.15308-34.79712l-.62451-.05713c-20.92139-1.15015-36.51477,8.25653-43.83069,26.61292-4.40051,11.03668-3.1991,23.79095,3.13611,33.28906,6.26099,9.37244,16.896,14.63562,29.94922,14.8222h.09717c5.57544,0,9.98926-4.32629,10.06543-9.88654.08374-5.52594-4.34912-10.08838-9.88269-10.17218-6.42664-.0838-10.98523-2.07178-13.54834-5.9068-3.04858-4.56622-2.7915-10.6825-1.18628-14.71558,3.99304-10.01227,11.7926-14.62036,23.71277-14.03772,12.99048,1.70618,22.39905,11.51654,24.97925,20.34058l.18091.59033c.89868,2.76105,5.05371,17.19482-1.3291,30.33374-1.68042,3.74176-4.0896,7.72546-7.52759,11.36176-.00012.00006-.00024.00006-.00024.00012-.81226.85901-1.68518,1.6972-2.6167,2.50958-.07031.0614-.14148.12244-.21265.18353-.42139.36206-.85449.71875-1.30127,1.06891-.04285.03357-.08423.06787-.1272.10132-.50586.39307-1.0271.77863-1.56628,1.1546-.00867.00604-.0177.01178-.02649.01782-.4978.34662-1.01392.68341-1.54077,1.01373-.11401.07147-.22974.14215-.34521.21283-.4646.28455-.94092.56219-1.42822.83307-.09937.05511-.19604.11182-.29614.16632-.59277.32275-1.20044.63629-1.82739.93713-.03369.01617-.06934.03125-.10327.04736-.57068.27203-1.15881.53241-1.75842.78485-.16516.06952-.33289.13721-.50037.20514-.51013.20721-1.03137.40656-1.5625.59888-.16138.05841-.32007.11877-.4834.17572-.68726.23987-1.38867.46948-2.11108.68304-.05396.01593-.11084.02979-.16504.04559-.65845.19208-1.33423.37061-2.02246.53961-.21606.05304-.43604.10309-.65515.15375-.56848.13153-1.14758.25452-1.73633.36969-.2196.04297-.43689.08783-.6593.12848-.79492.1452-1.60364.27924-2.43579.39355-.04871.00671-.1001.01123-.14893.01782-.78064.10516-1.5813.19324-2.39526.2699-.2605.02454-.52612.04474-.79004.06628-.64526.05261-1.30127.0957-1.96741.12988-.27063.01385-.53943.02942-.8136.04022-.91821.03607-1.84985.06024-2.80762.06024-16.76074-.54077-29.82349-6.42468-38.82275-17.48425-11.79077-14.47565-14.68311-35.42175-12.38477-48.73199.03784-.18573.0802-.38678.1272-.60242.13574-.62299.31226-1.37128.53394-2.22003.00793-.03033.0144-.05737.02246-.08795.93066-3.54193,2.66333-8.85199,5.71362-14.66522.00525-.00995.01001-.01959.01514-.02948.25256-.48071.5144-.96484.78516-1.45172.00244-.00446.00476-.00891.00732-.01337.26807-.48157.54578-.96594.83228-1.45215.00635-.01056.01196-.02106.01831-.03162.27539-.4668.56116-.93561.85425-1.4054.01941-.03131.0376-.06244.05713-.09375.28687-.45807.58423-.91736.88818-1.37708.02832-.04266.05457-.08527.08301-.12799.30078-.45264.61279-.90564.93066-1.35864.03491-.04968.0675-.0993.10254-.14899.31189-.44153.63513-.88275.96362-1.32343.0459-.06158.08911-.12329.13525-.18481.32373-.43085.65918-.8606.99939-1.28961.05603-.07062.10876-.14172.16541-.21228.33435-.41797.68066-.83398,1.03113-1.24921.06836-.08099.13318-.16266.20227-.24359.34521-.4046.70251-.80646,1.06348-1.20746.08093-.08997.15796-.18091.23975-.27069.3573-.39209.72705-.78076,1.09961-1.16846.09277-.09644.1814-.19415.27515-.29034.36938-.37903.75146-.75391,1.13611-1.12781.10522-.10223.20593-.20612.31238-.30792.38086-.36475.77466-.72449,1.17053-1.08337.11902-.10779.23328-.21753.35364-.32477.38892-.34674.79089-.68781,1.19434-1.02826.13721-.11591.26965-.23395.40869-.34906.39746-.3291.80835-.65198,1.21973-.9743.15503-.12134.30469-.24518.46167-.36554.4071-.31219.82751-.61731,1.24829-.9223.17236-.12494.33936-.25262.51404-.37622.41565-.29419.8446-.58075,1.27344-.86743.24451-.16357.48145-.3316.73035-.49255.11035-.073.22046-.14636.33154-.21844.20935-.1333.42261-.26404.63501-.39545,6.81665-4.29572,14.64893-7.21161,22.56604-8.35516,5.72925-1.00751,12.08167-1.4397,19.1532-1.10571.76257.04651,1.50598.11157,2.25244.17371v.00006c66.91113,5.56818,69.41223,73.19238,69.48792,80.23151.00037.03778.00037.06372.00061.09796.00061.06879.00122.14099.00146.19537.00012.0813,0,.14691-.00024.19519v72.89569c-.05188,5.70093-1.27649,39.52338-22.16089,46.75214-13.64746,3.27142-22.97791-.49884-28.40479-4.23871-6.34863-4.36438-10.64062-11.02142-11.48047-17.81561-.60168-4.88232.71985-9.59326,3.45239-12.28961,3.55884-3.53418,8.16504-4.92426,12.3125-3.73987,3.77979,1.08539,6.44946,4.20068,7.51953,8.77075,1.27014,5.38885,6.65332,8.75543,12.0498,7.47583,2.6106-.60938,4.82898-2.20123,6.24194-4.47864,1.41089-2.2774,1.85083-4.96613,1.23767-7.57111-2.71533-11.61176-10.75671-20.38623-21.5116-23.47485-11.05566-3.17615-23.30737.17902-31.96753,8.77075-7.15027,7.07214-10.60449,17.91077-9.24109,28.99695,1.53674,12.39252,9.02014,24.3089,20.01501,31.87616,8.54028,5.88397,18.84766,8.99542,29.80615,8.99542,4.95093,0,10.03711-.63605,15.1499-1.89661l.71582-.20184c6.53027-2.16101,11.8667-5.54144,16.26562-9.63757v64.89716c0,5.52979,4.4978,10.03131,10.02563,10.03131s10.02551-4.50153,10.02551-10.03131v-119.24585c.04138-1.91461.01025-3.15808,0-3.46014v-71.26617Z"></path><path class="cls-1" d="m223.46973,346.06444c10.52637,6.38281,28.08691,11.84021,51.99585,1.50812l.74072-.36182c8.71741-4.70715,14.95166-12.48767,18.03076-22.50372,3.75513-12.1792,2.1156-25.5885-4.28052-34.99518-4.05029-5.96777-9.59338-10.1532-16.02954-12.10309-10.08838-3.06573-20.51196-2.14026-28.59717,2.52118-6.35034,3.66748-10.68628,9.25433-12.21155,15.73242-1.26819,5.38507,2.08313,10.79297,7.46826,12.06116,2.60876.62073,5.29944.17517,7.57288-1.23395,2.27942-1.4129,3.87329-3.62555,4.48633-6.2381.23242-1.00165,1.24158-2.10223,2.70215-2.94006,3.30933-1.9118,7.95374-2.17462,12.7522-.71222,2.03564.62079,3.80847,2.02991,5.26709,4.18542,2.96094,4.35681,3.64648,11.52039,1.70422,17.8194-1.51184,4.90521-4.15491,8.367-7.98425,10.53778-12.69336,5.3927-23.86328,5.24799-33.21484-.42651-10.63867-6.45142-16.09033-18.55823-16.56641-25.13147-.79395-7.46448.48938-22.9798,10.33594-33.78796,7.74438-8.51172,19.84351-12.82281,35.66748-12.68188,39.51758,2.87909,48.80615,31.43054,49.64026,54.84064l.03809,80.0788c0,5.52979,4.49768,10.02747,10.02551,10.02747s10.02563-4.49768,10.02563-10.02747v-79.4809l-.04565-1.28339c-1.57678-44.21533-26.55981-71.25098-68.56812-74.17584l-.54639-.02283c-.47803-.00763-.95215-.00763-1.42627-.00763-21.31372,0-38.00952,6.46283-49.63647,19.22473-13.69507,15.03546-16.89795,35.8559-15.48303,49.0824.89685,12.40765,9.46008,30.37183,26.13684,40.49451Z"></path><path class="cls-1" d="m461.03272,500.75316c-15.83142-9.1134-34.28491-9.67328-51.98633-1.55762l-.55408.27423c-8.95923,4.8252-15.8429,12.97131-18.88391,22.35516-4.08057,12.60956-1.948,28.45239,5.18335,38.52942,4.47473,6.32953,9.62561,10.19879,16.20837,12.17535,11.46704,3.48846,22.60852,2.35742,30.57361-3.08856,5.08618-3.48853,11.36047-10.38928,12.35254-23.43298.20374-2.67346-.64746-5.26318-2.39355-7.29303-1.74609-2.03369-4.17773-3.26379-6.84937-3.46564-2.68298-.24756-5.26892.63977-7.29688,2.38782-2.03174,1.74426-3.26001,4.1778-3.45996,6.85132-.3103,4.11304-1.54993,6.93884-3.68457,8.40125-2.86011,1.96136-7.87378,2.12891-13.43408.44562-1.89844-.57129-3.50366-1.53479-5.63818-4.55865-3.47705-4.92041-4.58911-14.2395-2.47925-20.76709.68164-2.09839,2.93042-7.34637,9.00098-10.72437,14.77661-6.65326,26.2854-3.21051,33.33289.85687,9.69226,5.57928,16.854,16.02948,17.82507,26.01123.7561,7.18262-.55981,22.22571-10.29395,33.0415-7.84338,8.72498-19.90076,13.18079-35.76074,13.24554-39.42627-2.88678-48.73206-31.32013-49.59656-54.62738l-.05334-68.88599h-.10254c-.48218-5.08728-4.72461-9.09442-9.93066-9.09442-5.20862,0-9.45093,4.01117-9.92932,9.10205h-.09607l.00183,5.68781v204.50806c0,5.52979,4.49573,10.03131,10.02356,10.03131s10.02563-4.50153,10.02563-10.03131v-87.40137c11.65527,12.11017,28.08154,19.31708,48.60254,20.74329l.66455.02289c22.00488,0,39.18628-6.6875,51.06665-19.87976,13.51392-15.02783,16.70349-35.51697,15.32861-48.48828-1.57666-16.31512-12.4762-32.55402-27.76685-41.37427Z"></path><path class="cls-1" d="m521.82202,334.86394c-16.29224-13.46643-40.58203-19.47601-63.38855-15.68286-19.74451,3.29041-35.77405,13.50067-45.15405,28.79132-12.4762,22.39709-12.41907,47.26202.14856,66.51337,10.8634,16.64264,29.24268,25.89319,47.96265,24.08417,36.0083-2.75726,43.67078-29.96429,42.69202-43.96771-.79968-11.35278-7.48535-21.19366-17.88611-26.3197-11.39844-5.60974-25.15234-4.68811-35.88818,2.42212-4.61011,3.05811-5.87451,9.29626-2.82202,13.89679,1.47949,2.23547,3.73975,3.76263,6.36768,4.29584,2.61816.52173,5.29736.01141,7.53101-1.47388,4.80811-3.17999,10.91284-3.61792,15.94751-1.1463,2.34595,1.15393,6.3429,3.95691,6.74854,9.73041.14661,2.10602.69873,20.65283-24.40222,22.58368-11.39087,1.0473-22.68079-4.70331-29.45203-15.06976-8.42419-12.89893-8.28137-29.89197.36169-45.42255,6.15625-10.02362,17.21582-16.81775,31.13928-19.1333,16.9873-2.83344,35.47314,1.56146,47.11157,11.18146,16.86353,14.73462,27.76123,45.20166,11.85156,77.24536-10.8291,20.1958-33.36328,30.47083-49.36792,33.13287-15.8772,2.64685-31.86475.86072-46.20898-5.16412l-4.13599-1.90424c-30.9812-14.20142-42.32251-44.41333-46.38989-67.29407-1.54041-7.03406-1.73462-29.53778-1.49463-42.09021l.04565-69.06494c0-5.06897,2.30591-20.51959,12.86475-31.04974l.40161-.43036c8.1272-9.18201,29.82153-14.45276,46.67944-7.7843,13.32349,5.28601,19.85693,16.53979,19.42651,33.38043-1.20923,11.45178-8.93823,24.96393-26.73865,25.41333l-.19226-.01141c-3.36096-.15619-11.68604-1.0321-16.37427-5.71259-2.26782-2.26978-3.40649-5.35461-3.38745-9.12866.2666-5.09186,2.00317-8.26038,5.30688-9.68475,3.55908-1.53479,7.36353-.59412,8.31763-.02667,3.24854,4.26544,9.20862,5.23273,13.6416,2.18225,2.21265-1.51575,3.69983-3.80078,4.18921-6.43616.48926-2.63159-.07617-5.29749-1.59192-7.50635-5.26697-7.67767-17.65002-11.0976-28.80286-7.94049-12.46851,3.51514-20.35571,14.27002-21.10217,28.81421-.07617,9.521,3.12292,17.78894,9.25244,23.91284,11.48987,11.48987,29.04272,11.65363,31.0116,11.5965,24.91821-.58264,44.02686-18.60394,46.46802-43.85345l.04004-.62842c.76355-25.31812-10.92822-44.64185-32.07617-53.00885-22.89404-9.07538-54.44067-3.16095-68.85547,12.87616-18.32397,18.45538-18.5354,43.93726-18.5354,45.01123l-.03809,68.87836c-.0686,3.54181-.59985,34.92285,1.87378,46.19183,6.53516,36.84991,24.64209,64.16357,52.38794,78.99725l5.11853,2.56683c13.93494,6.74463,28.92273,10.16077,44.54663,10.16077,5.83252,0,11.77173-.49512,17.65186-1.47003,21.47156-3.58368,49.52795-16.9397,63.89124-43.724,20.73669-41.7627,5.89355-82.00208-16.69214-101.72949Z"></path></g></g></svg>